<mxfile host="app.diagrams.net" modified="2020-09-18T23:15:42.910Z" agent="5.0 (Windows NT 6.3; Win64; x64) AppleWebKit/537.36 (KHTML, like Gecko) Chrome/85.0.4183.102 Safari/537.36" etag="ocIMolQM_LSFvNh_WQNr" version="13.7.3" type="github">
  <diagram name="Page-1" id="b98fa263-6416-c6ec-5b7d-78bf54ef71d0">
    <mxGraphModel dx="3200.5" dy="750" grid="1" gridSize="10" guides="1" tooltips="1" connect="1" arrows="1" fold="1" page="1" pageScale="1.5" pageWidth="1169" pageHeight="826" background="#182E3E" math="0" shadow="0">
      <root>
        <mxCell id="0" style=";html=1;" />
        <mxCell id="1" style=";html=1;" parent="0" />
        <mxCell id="303ed1de8c2c98b4-3" value="&lt;b&gt;&lt;font color=&quot;#cc0066&quot; style=&quot;font-size: 18px&quot;&gt;EL APRENDIZAJE EN ESCUELAS MULTIGRADO&lt;/font&gt;&lt;/b&gt;" style="whiteSpace=wrap;html=1;rounded=1;shadow=1;strokeWidth=1;fontSize=16;align=center;fillColor=#EEEEEE;strokeColor=#FFFFFF;fontColor=#1A1A1A;gradientColor=#66FFFF;" parent="1" vertex="1">
          <mxGeometry x="585" y="245" width="600" height="40" as="geometry" />
        </mxCell>
        <mxCell id="303ed1de8c2c98b4-4" value="&lt;font size=&quot;1&quot; color=&quot;#cc0066&quot;&gt;&lt;b style=&quot;font-size: 18px&quot;&gt;ANDRES SANCHEZ MOGUEL&lt;/b&gt;&lt;/font&gt;" style="whiteSpace=wrap;html=1;rounded=1;shadow=1;strokeWidth=1;fontSize=16;align=center;fillColor=#EEEEEE;strokeColor=#FFFFFF;fontColor=#1A1A1A;gradientColor=#66FFFF;" parent="1" vertex="1">
          <mxGeometry x="630" y="335" width="510" height="40" as="geometry" />
        </mxCell>
        <mxCell id="303ed1de8c2c98b4-5" value="&lt;font color=&quot;#cc0000&quot;&gt;Por que es posible que las escuelas&amp;nbsp;&lt;br&gt;multigrado, en sus circunstancias&amp;nbsp;&lt;br&gt;actuales, tengan menores resultados&lt;br&gt;de aprendizaje que otras escuelas&lt;/font&gt;" style="whiteSpace=wrap;html=1;rounded=1;shadow=1;strokeWidth=1;fontSize=16;align=center;fillColor=#EEEEEE;strokeColor=#FFFFFF;fontColor=#1A1A1A;gradientColor=#99FF99;" parent="1" vertex="1">
          <mxGeometry x="440" y="415" width="320" height="80" as="geometry" />
        </mxCell>
        <mxCell id="303ed1de8c2c98b4-6" value="&lt;font color=&quot;#cc0000&quot;&gt;por que es necesario hacer análisis&lt;br&gt;estadísticos&amp;nbsp;complejos para identificar&lt;br&gt;diferencias en el aprendizaje entre escuelas multigrado y entre otras escuelas.&lt;/font&gt;" style="whiteSpace=wrap;html=1;rounded=1;shadow=1;strokeWidth=1;fontSize=16;align=center;fillColor=#EEEEEE;strokeColor=#FFFFFF;fontColor=#1A1A1A;gradientColor=#99FF99;" parent="1" vertex="1">
          <mxGeometry x="772" y="410" width="318" height="85" as="geometry" />
        </mxCell>
        <mxCell id="303ed1de8c2c98b4-7" value="&lt;font face=&quot;Comic Sans MS&quot; color=&quot;#cc0000&quot;&gt;La identificación&amp;nbsp;de una escuela como&lt;br&gt;multigrado a partir de los marcos muéstrales&amp;nbsp;y de la información&amp;nbsp;en los cuestionarios de contexto.&lt;/font&gt;" style="whiteSpace=wrap;html=1;rounded=1;shadow=1;strokeWidth=1;fontSize=16;align=center;fillColor=#EEEEEE;strokeColor=#FFFFFF;fontColor=#1A1A1A;gradientColor=#99FF99;" parent="1" vertex="1">
          <mxGeometry x="70" y="415" width="360" height="80" as="geometry" />
        </mxCell>
        <mxCell id="303ed1de8c2c98b4-8" value="&lt;font color=&quot;#cc0000&quot;&gt;Avances de análisis multinivel entre escuelas multigrado y otras escuelas.&lt;/font&gt;" style="whiteSpace=wrap;html=1;rounded=1;shadow=1;strokeWidth=1;fontSize=16;align=center;fillColor=#EEEEEE;strokeColor=#FFFFFF;fontColor=#1A1A1A;gradientColor=#99FF99;" parent="1" vertex="1">
          <mxGeometry x="1120" y="410" width="275" height="85" as="geometry" />
        </mxCell>
        <mxCell id="303ed1de8c2c98b4-9" value="&lt;font color=&quot;#cc0000&quot;&gt;siguientes pasos en el análisis&amp;nbsp;del aprendizaje en escuelas multigrado.&lt;/font&gt;" style="whiteSpace=wrap;html=1;rounded=1;shadow=1;strokeWidth=1;fontSize=16;align=center;fillColor=#EEEEEE;strokeColor=#FFFFFF;fontColor=#1A1A1A;gradientColor=#99FF99;" parent="1" vertex="1">
          <mxGeometry x="1450" y="410" width="275" height="80" as="geometry" />
        </mxCell>
        <mxCell id="303ed1de8c2c98b4-10" value="&lt;font color=&quot;#009999&quot;&gt;La mayoría&amp;nbsp;de escuelas multigrado están&amp;nbsp;en las mismas&amp;nbsp;condiciones&lt;/font&gt;" style="whiteSpace=wrap;html=1;rounded=1;shadow=1;strokeWidth=1;fontSize=16;align=center;fillColor=#EEEEEE;strokeColor=#FFFFFF;fontColor=#1A1A1A;gradientColor=#E6D0DE;" parent="1" vertex="1">
          <mxGeometry x="440" y="510" width="135" height="90" as="geometry" />
        </mxCell>
        <mxCell id="303ed1de8c2c98b4-12" value="&lt;font color=&quot;#009999&quot; style=&quot;font-size: 17px&quot;&gt;Modelo pedagógico multigrado.&lt;/font&gt;" style="whiteSpace=wrap;html=1;rounded=1;shadow=1;strokeWidth=1;fontSize=16;align=center;fillColor=#EEEEEE;strokeColor=#FFFFFF;fontColor=#1A1A1A;gradientColor=#E6D0DE;" parent="1" vertex="1">
          <mxGeometry x="610" y="510" width="125" height="80" as="geometry" />
        </mxCell>
        <mxCell id="303ed1de8c2c98b4-13" value="&lt;font color=&quot;#009999&quot;&gt;Resultados desfavorables a la condición multigrado.&lt;/font&gt;" style="whiteSpace=wrap;html=1;rounded=1;shadow=1;strokeWidth=1;fontSize=16;align=center;fillColor=#EEEEEE;strokeColor=#FFFFFF;fontColor=#1A1A1A;gradientColor=#FF99FF;" parent="1" vertex="1">
          <mxGeometry x="760" y="510" width="125" height="80" as="geometry" />
        </mxCell>
        <mxCell id="303ed1de8c2c98b4-14" value="&lt;font color=&quot;#009999&quot;&gt;Organización tetra y pentadocente&lt;/font&gt;" style="whiteSpace=wrap;html=1;rounded=1;shadow=1;strokeWidth=1;fontSize=16;align=center;fillColor=#EEEEEE;strokeColor=#FFFFFF;fontColor=#1A1A1A;gradientColor=#FF99FF;" parent="1" vertex="1">
          <mxGeometry x="905" y="510" width="135" height="80" as="geometry" />
        </mxCell>
        <mxCell id="303ed1de8c2c98b4-15" value="&lt;font color=&quot;#009999&quot;&gt;La proporción&amp;nbsp;de de grupos que incluyen a estudiantes de mas de un grado puede depender de un criterio relativamente móvil&amp;nbsp;para definir a una escuela como multigrado.&lt;/font&gt;" style="whiteSpace=wrap;html=1;rounded=1;shadow=1;strokeWidth=1;fontSize=16;align=center;fillColor=#EEEEEE;strokeColor=#FFFFFF;fontColor=#1A1A1A;gradientColor=#FFFF99;" parent="1" vertex="1">
          <mxGeometry x="-70" y="515" width="305" height="95" as="geometry" />
        </mxCell>
        <mxCell id="303ed1de8c2c98b4-16" value="&lt;font color=&quot;#009999&quot;&gt;Identificar y caracterizar&amp;nbsp; la condición multigrado desde su inicio.&lt;/font&gt;" style="whiteSpace=wrap;html=1;rounded=1;shadow=1;strokeWidth=1;fontSize=16;align=center;fillColor=#EEEEEE;strokeColor=#FFFFFF;fontColor=#1A1A1A;gradientColor=#FFFF99;" parent="1" vertex="1">
          <mxGeometry x="275" y="515" width="145" height="95" as="geometry" />
        </mxCell>
        <mxCell id="303ed1de8c2c98b4-17" value="&lt;font color=&quot;#009999&quot;&gt;Contrasta los resultados de escuelas del mismo tipo.&lt;/font&gt;" style="whiteSpace=wrap;html=1;rounded=1;shadow=1;strokeWidth=1;fontSize=16;align=center;fillColor=#EEEEEE;strokeColor=#FFFFFF;fontColor=#1A1A1A;gradientColor=#66FFB3;" parent="1" vertex="1">
          <mxGeometry x="1050" y="510" width="132" height="80" as="geometry" />
        </mxCell>
        <mxCell id="303ed1de8c2c98b4-18" value="&lt;font color=&quot;#009999&quot; style=&quot;font-size: 17px&quot;&gt;Condición multigrado transitoria.&lt;/font&gt;" style="whiteSpace=wrap;html=1;rounded=1;shadow=1;strokeWidth=1;fontSize=16;align=center;fillColor=#EEEEEE;strokeColor=#FFFFFF;fontColor=#1A1A1A;gradientColor=#66FFB3;" parent="1" vertex="1">
          <mxGeometry x="1207" y="510" width="125" height="80" as="geometry" />
        </mxCell>
        <mxCell id="303ed1de8c2c98b4-19" value="&lt;font color=&quot;#009999&quot; style=&quot;font-size: 17px&quot;&gt;Identificar el nivel de preparación el docente.&lt;/font&gt;" style="whiteSpace=wrap;html=1;rounded=1;shadow=1;strokeWidth=1;fontSize=16;align=center;fillColor=#EEEEEE;strokeColor=#FFFFFF;fontColor=#1A1A1A;gradientColor=#FF9933;" parent="1" vertex="1">
          <mxGeometry x="1350" y="515" width="132" height="85" as="geometry" />
        </mxCell>
        <mxCell id="303ed1de8c2c98b4-20" value="&lt;font color=&quot;#009999&quot;&gt;Profesores con preparación para la docencia&lt;/font&gt;" style="whiteSpace=wrap;html=1;rounded=1;shadow=1;strokeWidth=1;fontSize=16;align=center;fillColor=#EEEEEE;strokeColor=#FFFFFF;fontColor=#1A1A1A;gradientColor=#FF9933;" parent="1" vertex="1">
          <mxGeometry x="1507" y="515" width="143" height="80" as="geometry" />
        </mxCell>
        <mxCell id="303ed1de8c2c98b4-21" value="&lt;font color=&quot;#009999&quot;&gt;Poca demanda en localidades y comunidades&lt;/font&gt;" style="whiteSpace=wrap;html=1;rounded=1;shadow=1;strokeWidth=1;fontSize=16;align=center;fillColor=#EEEEEE;strokeColor=#FFFFFF;fontColor=#1A1A1A;gradientColor=#E6D0DE;" parent="1" vertex="1">
          <mxGeometry x="450" y="610" width="125" height="80" as="geometry" />
        </mxCell>
        <mxCell id="303ed1de8c2c98b4-22" value="&lt;font color=&quot;#009999&quot;&gt;Que los docentes tengan una formación especifica&amp;nbsp; y que el currículo y os materiales estén diseñados para dicho modelo.&lt;/font&gt;" style="whiteSpace=wrap;html=1;rounded=1;shadow=1;strokeWidth=1;fontSize=16;align=center;fillColor=#EEEEEE;strokeColor=#FFFFFF;fontColor=#1A1A1A;gradientColor=#E6D0DE;" parent="1" vertex="1">
          <mxGeometry x="610" y="610" width="140" height="160" as="geometry" />
        </mxCell>
        <mxCell id="303ed1de8c2c98b4-23" value="&lt;font color=&quot;#009999&quot;&gt;Menor aprendizaje en escuelas multigrado indígenas.&lt;/font&gt;" style="whiteSpace=wrap;html=1;rounded=1;shadow=1;strokeWidth=1;fontSize=16;align=center;fillColor=#EEEEEE;strokeColor=#FFFFFF;fontColor=#1A1A1A;gradientColor=#FF99FF;" parent="1" vertex="1">
          <mxGeometry x="760" y="610" width="125" height="100" as="geometry" />
        </mxCell>
        <mxCell id="303ed1de8c2c98b4-24" value="&lt;font color=&quot;#009999&quot;&gt;Materiales adecuados y adaptaciones curriculares pertinentes.&lt;/font&gt;" style="whiteSpace=wrap;html=1;rounded=1;shadow=1;strokeWidth=1;fontSize=16;align=center;fillColor=#EEEEEE;strokeColor=#FFFFFF;fontColor=#1A1A1A;gradientColor=#FF99FF;" parent="1" vertex="1">
          <mxGeometry x="905" y="610" width="125" height="100" as="geometry" />
        </mxCell>
        <mxCell id="303ed1de8c2c98b4-27" value="&lt;font color=&quot;#009999&quot; style=&quot;font-size: 17px&quot;&gt;contrasta e nivel de marginación&amp;nbsp;de la escuela&lt;/font&gt;" style="whiteSpace=wrap;html=1;rounded=1;shadow=1;strokeWidth=1;fontSize=16;align=center;fillColor=#EEEEEE;strokeColor=#FFFFFF;fontColor=#1A1A1A;gradientColor=#66FFB3;" parent="1" vertex="1">
          <mxGeometry x="1057" y="610" width="125" height="80" as="geometry" />
        </mxCell>
        <mxCell id="303ed1de8c2c98b4-29" value="&lt;font color=&quot;#009999&quot;&gt;Aprendizaje en el interior del grupo de escuelas multigrado.&lt;/font&gt;" style="whiteSpace=wrap;html=1;rounded=1;shadow=1;strokeWidth=1;fontSize=16;align=center;fillColor=#EEEEEE;strokeColor=#FFFFFF;fontColor=#1A1A1A;gradientColor=#FF9933;" parent="1" vertex="1">
          <mxGeometry x="1340" y="620" width="142" height="90" as="geometry" />
        </mxCell>
        <mxCell id="303ed1de8c2c98b4-30" value="&lt;font color=&quot;#009999&quot;&gt;Modificaciones para ser mas adecuados a la situación multigrado.&lt;/font&gt;" style="whiteSpace=wrap;html=1;rounded=1;shadow=1;strokeWidth=1;fontSize=16;align=center;fillColor=#EEEEEE;strokeColor=#FFFFFF;fontColor=#1A1A1A;gradientColor=#FF9933;" parent="1" vertex="1">
          <mxGeometry x="1507" y="610" width="203" height="90" as="geometry" />
        </mxCell>
        <mxCell id="303ed1de8c2c98b4-31" value="&lt;font color=&quot;#009999&quot;&gt;Plantilla incompleta de docentes&lt;/font&gt;" style="whiteSpace=wrap;html=1;rounded=1;shadow=1;strokeWidth=1;fontSize=16;align=center;fillColor=#EEEEEE;strokeColor=#FFFFFF;fontColor=#1A1A1A;gradientColor=#E6D0DE;" parent="1" vertex="1">
          <mxGeometry x="450" y="720" width="125" height="80" as="geometry" />
        </mxCell>
        <mxCell id="303ed1de8c2c98b4-33" value="&lt;font color=&quot;#009999&quot;&gt;Esto se debe a la falta de docentes&lt;/font&gt;" style="whiteSpace=wrap;html=1;rounded=1;shadow=1;strokeWidth=1;fontSize=16;align=center;fillColor=#EEEEEE;strokeColor=#FFFFFF;fontColor=#1A1A1A;gradientColor=#FF99FF;" parent="1" vertex="1">
          <mxGeometry x="760" y="720" width="125" height="80" as="geometry" />
        </mxCell>
        <mxCell id="303ed1de8c2c98b4-37" value="&lt;font color=&quot;#009999&quot; style=&quot;font-size: 17px&quot;&gt;Recursos asociados al bienestar.&lt;/font&gt;" style="whiteSpace=wrap;html=1;rounded=1;shadow=1;strokeWidth=1;fontSize=16;align=center;fillColor=#EEEEEE;strokeColor=#FFFFFF;fontColor=#1A1A1A;gradientColor=#66FFB3;" parent="1" vertex="1">
          <mxGeometry x="1060" y="720" width="125" height="80" as="geometry" />
        </mxCell>
        <mxCell id="303ed1de8c2c98b4-39" value="&lt;font color=&quot;#009999&quot;&gt;Preparación pedagógica profunda a los maestros para atender aulas multigrado.&lt;/font&gt;" style="whiteSpace=wrap;html=1;rounded=1;shadow=1;strokeWidth=1;fontSize=16;align=center;fillColor=#EEEEEE;strokeColor=#FFFFFF;fontColor=#1A1A1A;gradientColor=#FF9933;" parent="1" vertex="1">
          <mxGeometry x="1300" y="720" width="182" height="90" as="geometry" />
        </mxCell>
        <mxCell id="303ed1de8c2c98b4-40" value="&lt;font color=&quot;#009999&quot;&gt;Necesidades de materiales y capacitación&amp;nbsp; docente.&lt;/font&gt;" style="whiteSpace=wrap;html=1;rounded=1;shadow=1;strokeWidth=1;fontSize=16;align=center;fillColor=#EEEEEE;strokeColor=#FFFFFF;fontColor=#1A1A1A;gradientColor=#FF9933;" parent="1" vertex="1">
          <mxGeometry x="1507" y="720" width="193" height="100" as="geometry" />
        </mxCell>
        <mxCell id="303ed1de8c2c98b4-41" value="&lt;font color=&quot;#009999&quot;&gt;Convicciones que sustentan su modelo de atención educativa.&lt;/font&gt;" style="whiteSpace=wrap;html=1;rounded=1;shadow=1;strokeWidth=1;fontSize=16;align=center;fillColor=#EEEEEE;strokeColor=#FFFFFF;fontColor=#1A1A1A;gradientColor=#E6D0DE;" parent="1" vertex="1">
          <mxGeometry x="430" y="830" width="145" height="80" as="geometry" />
        </mxCell>
        <mxCell id="303ed1de8c2c98b4-47" value="&lt;font color=&quot;#009999&quot; style=&quot;font-size: 17px&quot;&gt;Excluye a las escuelas privadas&lt;/font&gt;" style="whiteSpace=wrap;html=1;rounded=1;shadow=1;strokeWidth=1;fontSize=16;align=center;fillColor=#EEEEEE;strokeColor=#FFFFFF;fontColor=#1A1A1A;gradientColor=#66FFB3;" parent="1" vertex="1">
          <mxGeometry x="1057" y="830" width="125" height="80" as="geometry" />
        </mxCell>
        <mxCell id="303ed1de8c2c98b4-49" value="&lt;font color=&quot;#009999&quot;&gt;Condiciones de oferta educativa como el currículo.&lt;/font&gt;" style="whiteSpace=wrap;html=1;rounded=1;shadow=1;strokeWidth=1;fontSize=16;align=center;fillColor=#EEEEEE;strokeColor=#FFFFFF;fontColor=#1A1A1A;gradientColor=#FF9933;" parent="1" vertex="1">
          <mxGeometry x="1330" y="830" width="152" height="80" as="geometry" />
        </mxCell>
        <mxCell id="303ed1de8c2c98b4-50" value="&lt;font color=&quot;#009999&quot;&gt;Aun no hay niveles ideales de refinamiento para la condicion multigrado.&lt;/font&gt;" style="whiteSpace=wrap;html=1;rounded=1;shadow=1;strokeWidth=1;fontSize=16;align=center;fillColor=#EEEEEE;strokeColor=#FFFFFF;fontColor=#1A1A1A;gradientColor=#FF9933;" parent="1" vertex="1">
          <mxGeometry x="1507" y="830" width="193" height="90" as="geometry" />
        </mxCell>
        <mxCell id="l-tAOc4Pm9dTRs9634bF-3" style="edgeStyle=orthogonalEdgeStyle;curved=0;rounded=1;sketch=0;orthogonalLoop=1;jettySize=auto;html=1;exitX=0.5;exitY=1;exitDx=0;exitDy=0;strokeColor=#FFFFFF;fontColor=#FFFFFF;" edge="1" parent="1" source="303ed1de8c2c98b4-69">
          <mxGeometry relative="1" as="geometry">
            <mxPoint x="147.92857142857156" y="760" as="targetPoint" />
          </mxGeometry>
        </mxCell>
        <mxCell id="303ed1de8c2c98b4-69" value="&lt;font color=&quot;#009999&quot;&gt;INEE&lt;br&gt;EXCALE&lt;br&gt;Cursos comunitarios&lt;/font&gt;." style="whiteSpace=wrap;html=1;rounded=1;shadow=1;strokeWidth=1;fontSize=16;align=center;fillColor=#EEEEEE;strokeColor=#FFFFFF;fontColor=#1A1A1A;gradientColor=#FFFF99;" parent="1" vertex="1">
          <mxGeometry x="70" y="625" width="155" height="85" as="geometry" />
        </mxCell>
        <mxCell id="l-tAOc4Pm9dTRs9634bF-7" style="edgeStyle=orthogonalEdgeStyle;curved=0;rounded=1;sketch=0;orthogonalLoop=1;jettySize=auto;html=1;strokeColor=#FFFFFF;fontColor=#FFFFFF;" edge="1" parent="1" source="303ed1de8c2c98b4-70">
          <mxGeometry relative="1" as="geometry">
            <mxPoint x="347.5" y="800" as="targetPoint" />
          </mxGeometry>
        </mxCell>
        <mxCell id="303ed1de8c2c98b4-70" value="&lt;font color=&quot;#009999&quot;&gt;Buscaban entender la manera en que los instructores comunitarios trabajaban para atender estudiantes de diferentes grados&lt;/font&gt;" style="whiteSpace=wrap;html=1;rounded=1;shadow=1;strokeWidth=1;fontSize=16;align=center;fillColor=#EEEEEE;strokeColor=#FFFFFF;fontColor=#1A1A1A;gradientColor=#FFFF99;" parent="1" vertex="1">
          <mxGeometry x="257.5" y="625" width="180" height="125" as="geometry" />
        </mxCell>
        <mxCell id="303ed1de8c2c98b4-73" value="&lt;font color=&quot;#009999&quot; style=&quot;font-size: 17px&quot;&gt;Explorar la medida en que los docentes están preparados para atender grupos multigrado.&lt;/font&gt;" style="whiteSpace=wrap;html=1;rounded=1;shadow=1;strokeWidth=1;fontSize=16;align=center;fillColor=#EEEEEE;strokeColor=#FFFFFF;fontColor=#1A1A1A;gradientColor=#66FFB3;" parent="1" vertex="1">
          <mxGeometry x="1030" y="950" width="160" height="110" as="geometry" />
        </mxCell>
        <mxCell id="303ed1de8c2c98b4-74" value="&lt;font color=&quot;#009999&quot;&gt;Condición socioeconómica de la familia y del alumno&lt;br&gt;condiciones de oferta educativa&lt;/font&gt;" style="whiteSpace=wrap;html=1;rounded=1;shadow=1;strokeWidth=1;fontSize=16;align=center;fillColor=#EEEEEE;strokeColor=#FFFFFF;fontColor=#1A1A1A;gradientColor=#FF99FF;" parent="1" vertex="1">
          <mxGeometry x="905" y="720" width="135" height="130" as="geometry" />
        </mxCell>
        <mxCell id="303ed1de8c2c98b4-75" value="&lt;font color=&quot;#009999&quot;&gt;Brindar atención a estudiantes de un mismo grado.&lt;/font&gt;" style="whiteSpace=wrap;html=1;rounded=1;shadow=1;strokeWidth=1;fontSize=16;align=center;fillColor=#EEEEEE;strokeColor=#FFFFFF;fontColor=#1A1A1A;gradientColor=#FF99FF;" parent="1" vertex="1">
          <mxGeometry x="760" y="810" width="125" height="100" as="geometry" />
        </mxCell>
        <mxCell id="303ed1de8c2c98b4-76" value="&lt;font color=&quot;#009999&quot;&gt;Escuelas con&amp;nbsp; en localidades pequeñas tienen oferta educativa mas pobre&lt;/font&gt;" style="whiteSpace=wrap;html=1;rounded=1;shadow=1;strokeWidth=1;fontSize=16;align=center;fillColor=#EEEEEE;strokeColor=#FFFFFF;fontColor=#1A1A1A;gradientColor=#E6D0DE;" parent="1" vertex="1">
          <mxGeometry x="612.5" y="800" width="135" height="110" as="geometry" />
        </mxCell>
        <mxCell id="303ed1de8c2c98b4-79" style="edgeStyle=orthogonalEdgeStyle;html=1;startSize=6;endFill=0;endSize=6;strokeWidth=1;fontSize=16;rounded=0;endArrow=none;strokeColor=#FFFFFF;fontColor=#FFFFFF;labelBackgroundColor=#182E3E;" parent="1" source="303ed1de8c2c98b4-3" target="303ed1de8c2c98b4-4" edge="1">
          <mxGeometry relative="1" as="geometry" />
        </mxCell>
        <mxCell id="303ed1de8c2c98b4-80" style="edgeStyle=orthogonalEdgeStyle;html=1;startSize=6;endFill=0;endSize=6;strokeWidth=1;fontSize=16;rounded=0;endArrow=none;strokeColor=#FFFFFF;fontColor=#FFFFFF;labelBackgroundColor=#182E3E;" parent="1" source="303ed1de8c2c98b4-4" target="303ed1de8c2c98b4-5" edge="1">
          <mxGeometry relative="1" as="geometry">
            <Array as="points">
              <mxPoint x="886" y="390" />
              <mxPoint x="578" y="390" />
            </Array>
          </mxGeometry>
        </mxCell>
        <mxCell id="303ed1de8c2c98b4-81" style="edgeStyle=elbowEdgeStyle;html=1;startSize=6;endFill=0;endSize=6;strokeWidth=1;fontSize=16;rounded=0;endArrow=none;strokeColor=#FFFFFF;fontColor=#FFFFFF;labelBackgroundColor=#182E3E;" parent="1" source="303ed1de8c2c98b4-4" target="303ed1de8c2c98b4-6" edge="1">
          <mxGeometry relative="1" as="geometry">
            <Array as="points">
              <mxPoint x="885" y="395" />
            </Array>
          </mxGeometry>
        </mxCell>
        <mxCell id="303ed1de8c2c98b4-82" style="edgeStyle=orthogonalEdgeStyle;html=1;startSize=6;endFill=0;endSize=6;strokeWidth=1;fontSize=16;rounded=0;endArrow=none;exitX=0.5;exitY=1;strokeColor=#FFFFFF;fontColor=#FFFFFF;labelBackgroundColor=#182E3E;" parent="1" source="303ed1de8c2c98b4-4" target="303ed1de8c2c98b4-7" edge="1">
          <mxGeometry relative="1" as="geometry">
            <Array as="points">
              <mxPoint x="885" y="390" />
              <mxPoint x="260" y="390" />
            </Array>
          </mxGeometry>
        </mxCell>
        <mxCell id="303ed1de8c2c98b4-83" style="edgeStyle=orthogonalEdgeStyle;html=1;startSize=6;endFill=0;endSize=6;strokeWidth=1;fontSize=16;rounded=0;endArrow=none;strokeColor=#FFFFFF;fontColor=#FFFFFF;labelBackgroundColor=#182E3E;" parent="1" source="303ed1de8c2c98b4-4" target="303ed1de8c2c98b4-8" edge="1">
          <mxGeometry relative="1" as="geometry">
            <Array as="points">
              <mxPoint x="885" y="390" />
              <mxPoint x="1195" y="390" />
            </Array>
          </mxGeometry>
        </mxCell>
        <mxCell id="303ed1de8c2c98b4-84" style="edgeStyle=orthogonalEdgeStyle;html=1;startSize=6;endFill=0;endSize=6;strokeWidth=1;fontSize=16;rounded=0;endArrow=none;strokeColor=#FFFFFF;fontColor=#FFFFFF;labelBackgroundColor=#182E3E;" parent="1" source="303ed1de8c2c98b4-4" target="303ed1de8c2c98b4-9" edge="1">
          <mxGeometry relative="1" as="geometry">
            <Array as="points">
              <mxPoint x="885" y="390" />
              <mxPoint x="1494" y="390" />
            </Array>
          </mxGeometry>
        </mxCell>
        <mxCell id="303ed1de8c2c98b4-85" style="edgeStyle=orthogonalEdgeStyle;html=1;startSize=6;endFill=0;endSize=6;strokeWidth=1;fontSize=16;rounded=0;entryX=1;entryY=0.5;endArrow=none;strokeColor=#FFFFFF;fontColor=#FFFFFF;labelBackgroundColor=#182E3E;" parent="1" source="303ed1de8c2c98b4-5" target="303ed1de8c2c98b4-10" edge="1">
          <mxGeometry relative="1" as="geometry">
            <Array as="points">
              <mxPoint x="590" y="525" />
              <mxPoint x="575" y="525" />
            </Array>
          </mxGeometry>
        </mxCell>
        <mxCell id="303ed1de8c2c98b4-86" style="edgeStyle=orthogonalEdgeStyle;html=1;startSize=6;endFill=0;endSize=6;strokeWidth=1;fontSize=16;rounded=0;entryX=1;entryY=0.5;endArrow=none;strokeColor=#FFFFFF;fontColor=#FFFFFF;labelBackgroundColor=#182E3E;" parent="1" source="303ed1de8c2c98b4-5" target="303ed1de8c2c98b4-21" edge="1">
          <mxGeometry relative="1" as="geometry">
            <Array as="points">
              <mxPoint x="590" y="635" />
              <mxPoint x="575" y="635" />
            </Array>
          </mxGeometry>
        </mxCell>
        <mxCell id="303ed1de8c2c98b4-87" style="edgeStyle=orthogonalEdgeStyle;html=1;startSize=6;endFill=0;endSize=6;strokeWidth=1;fontSize=16;rounded=0;entryX=1;entryY=0.5;endArrow=none;strokeColor=#FFFFFF;fontColor=#FFFFFF;labelBackgroundColor=#182E3E;" parent="1" source="303ed1de8c2c98b4-5" target="303ed1de8c2c98b4-31" edge="1">
          <mxGeometry relative="1" as="geometry">
            <Array as="points">
              <mxPoint x="590" y="745" />
              <mxPoint x="575" y="745" />
            </Array>
          </mxGeometry>
        </mxCell>
        <mxCell id="303ed1de8c2c98b4-88" style="edgeStyle=orthogonalEdgeStyle;html=1;startSize=6;endFill=0;endSize=6;strokeWidth=1;fontSize=16;rounded=0;endArrow=none;entryX=1;entryY=0.5;strokeColor=#FFFFFF;fontColor=#FFFFFF;labelBackgroundColor=#182E3E;" parent="1" source="303ed1de8c2c98b4-5" target="303ed1de8c2c98b4-41" edge="1">
          <mxGeometry relative="1" as="geometry">
            <Array as="points">
              <mxPoint x="590" y="855" />
              <mxPoint x="575" y="855" />
            </Array>
          </mxGeometry>
        </mxCell>
        <mxCell id="303ed1de8c2c98b4-89" style="edgeStyle=orthogonalEdgeStyle;html=1;startSize=6;endFill=0;endSize=6;strokeWidth=1;fontSize=16;rounded=0;entryX=0;entryY=0.5;endArrow=none;strokeColor=#FFFFFF;fontColor=#FFFFFF;labelBackgroundColor=#182E3E;" parent="1" source="303ed1de8c2c98b4-5" target="303ed1de8c2c98b4-12" edge="1">
          <mxGeometry relative="1" as="geometry">
            <Array as="points">
              <mxPoint x="590" y="525" />
              <mxPoint x="610" y="525" />
            </Array>
          </mxGeometry>
        </mxCell>
        <mxCell id="303ed1de8c2c98b4-90" style="edgeStyle=orthogonalEdgeStyle;html=1;startSize=6;endFill=0;endSize=6;strokeWidth=1;fontSize=16;rounded=0;entryX=0;entryY=0.5;endArrow=none;strokeColor=#FFFFFF;fontColor=#FFFFFF;labelBackgroundColor=#182E3E;" parent="1" source="303ed1de8c2c98b4-5" target="303ed1de8c2c98b4-22" edge="1">
          <mxGeometry relative="1" as="geometry">
            <Array as="points">
              <mxPoint x="590" y="635" />
              <mxPoint x="610" y="635" />
            </Array>
          </mxGeometry>
        </mxCell>
        <mxCell id="303ed1de8c2c98b4-91" style="edgeStyle=orthogonalEdgeStyle;html=1;startSize=6;endFill=0;endSize=6;strokeWidth=1;fontSize=16;rounded=0;entryX=0;entryY=0.5;endArrow=none;strokeColor=#FFFFFF;fontColor=#FFFFFF;labelBackgroundColor=#182E3E;exitX=0.5;exitY=1;exitDx=0;exitDy=0;" parent="1" source="303ed1de8c2c98b4-5" target="303ed1de8c2c98b4-76" edge="1">
          <mxGeometry relative="1" as="geometry">
            <Array as="points">
              <mxPoint x="590" y="495" />
              <mxPoint x="590" y="745" />
              <mxPoint x="610" y="745" />
            </Array>
          </mxGeometry>
        </mxCell>
        <mxCell id="303ed1de8c2c98b4-92" style="edgeStyle=orthogonalEdgeStyle;html=1;startSize=6;endFill=0;endSize=6;strokeWidth=1;fontSize=16;rounded=0;endArrow=none;entryX=1;entryY=0.5;strokeColor=#FFFFFF;fontColor=#FFFFFF;labelBackgroundColor=#182E3E;" parent="1" source="303ed1de8c2c98b4-6" target="303ed1de8c2c98b4-13" edge="1">
          <mxGeometry relative="1" as="geometry">
            <Array as="points">
              <mxPoint x="892" y="525" />
            </Array>
          </mxGeometry>
        </mxCell>
        <mxCell id="303ed1de8c2c98b4-93" style="edgeStyle=orthogonalEdgeStyle;html=1;startSize=6;endFill=0;endSize=6;strokeWidth=1;fontSize=16;rounded=0;endArrow=none;entryX=1;entryY=0.5;strokeColor=#FFFFFF;fontColor=#FFFFFF;labelBackgroundColor=#182E3E;" parent="1" source="303ed1de8c2c98b4-6" target="303ed1de8c2c98b4-23" edge="1">
          <mxGeometry relative="1" as="geometry">
            <Array as="points">
              <mxPoint x="893" y="635" />
            </Array>
          </mxGeometry>
        </mxCell>
        <mxCell id="303ed1de8c2c98b4-94" style="edgeStyle=orthogonalEdgeStyle;html=1;startSize=6;endFill=0;endSize=6;strokeWidth=1;fontSize=16;rounded=0;endArrow=none;entryX=1;entryY=0.5;strokeColor=#FFFFFF;fontColor=#FFFFFF;labelBackgroundColor=#182E3E;" parent="1" source="303ed1de8c2c98b4-6" target="303ed1de8c2c98b4-33" edge="1">
          <mxGeometry relative="1" as="geometry">
            <Array as="points">
              <mxPoint x="892" y="745" />
            </Array>
          </mxGeometry>
        </mxCell>
        <mxCell id="303ed1de8c2c98b4-95" style="edgeStyle=orthogonalEdgeStyle;html=1;startSize=6;endFill=0;endSize=6;strokeWidth=1;fontSize=16;rounded=0;endArrow=none;entryX=1;entryY=0.5;strokeColor=#FFFFFF;fontColor=#FFFFFF;labelBackgroundColor=#182E3E;" parent="1" source="303ed1de8c2c98b4-6" target="303ed1de8c2c98b4-75" edge="1">
          <mxGeometry relative="1" as="geometry">
            <Array as="points">
              <mxPoint x="892" y="855" />
            </Array>
          </mxGeometry>
        </mxCell>
        <mxCell id="303ed1de8c2c98b4-96" style="edgeStyle=orthogonalEdgeStyle;html=1;startSize=6;endFill=0;endSize=6;strokeWidth=1;fontSize=16;rounded=0;endArrow=none;entryX=0;entryY=0.5;strokeColor=#FFFFFF;fontColor=#FFFFFF;labelBackgroundColor=#182E3E;" parent="1" source="303ed1de8c2c98b4-6" target="303ed1de8c2c98b4-14" edge="1">
          <mxGeometry relative="1" as="geometry">
            <Array as="points">
              <mxPoint x="892" y="525" />
            </Array>
          </mxGeometry>
        </mxCell>
        <mxCell id="303ed1de8c2c98b4-97" style="edgeStyle=orthogonalEdgeStyle;html=1;startSize=6;endFill=0;endSize=6;strokeWidth=1;fontSize=16;rounded=0;endArrow=none;entryX=0;entryY=0.5;strokeColor=#FFFFFF;fontColor=#FFFFFF;labelBackgroundColor=#182E3E;" parent="1" source="303ed1de8c2c98b4-6" target="303ed1de8c2c98b4-24" edge="1">
          <mxGeometry relative="1" as="geometry">
            <Array as="points">
              <mxPoint x="892" y="635" />
            </Array>
          </mxGeometry>
        </mxCell>
        <mxCell id="303ed1de8c2c98b4-98" style="edgeStyle=orthogonalEdgeStyle;html=1;startSize=6;endFill=0;endSize=6;strokeWidth=1;fontSize=16;rounded=0;endArrow=none;entryX=0;entryY=0.5;strokeColor=#FFFFFF;fontColor=#FFFFFF;labelBackgroundColor=#182E3E;" parent="1" source="303ed1de8c2c98b4-6" target="303ed1de8c2c98b4-74" edge="1">
          <mxGeometry relative="1" as="geometry">
            <Array as="points">
              <mxPoint x="892" y="745" />
            </Array>
          </mxGeometry>
        </mxCell>
        <mxCell id="303ed1de8c2c98b4-99" style="edgeStyle=orthogonalEdgeStyle;html=1;startSize=6;endFill=0;endSize=6;strokeWidth=1;fontSize=16;rounded=0;endArrow=none;entryX=1;entryY=0.5;strokeColor=#FFFFFF;fontColor=#FFFFFF;labelBackgroundColor=#182E3E;" parent="1" source="303ed1de8c2c98b4-7" target="303ed1de8c2c98b4-15" edge="1">
          <mxGeometry relative="1" as="geometry">
            <Array as="points">
              <mxPoint x="255" y="525" />
            </Array>
          </mxGeometry>
        </mxCell>
        <mxCell id="303ed1de8c2c98b4-100" style="edgeStyle=orthogonalEdgeStyle;html=1;startSize=6;endFill=0;endSize=6;strokeWidth=1;fontSize=16;rounded=0;endArrow=none;entryX=1;entryY=0.5;strokeColor=#FFFFFF;fontColor=#FFFFFF;labelBackgroundColor=#182E3E;" parent="1" source="303ed1de8c2c98b4-7" target="303ed1de8c2c98b4-69" edge="1">
          <mxGeometry relative="1" as="geometry">
            <Array as="points">
              <mxPoint x="255" y="635" />
            </Array>
          </mxGeometry>
        </mxCell>
        <mxCell id="303ed1de8c2c98b4-101" style="edgeStyle=orthogonalEdgeStyle;html=1;startSize=6;endFill=0;endSize=6;strokeWidth=1;fontSize=16;rounded=0;endArrow=none;entryX=0;entryY=0.5;strokeColor=#FFFFFF;fontColor=#FFFFFF;labelBackgroundColor=#182E3E;" parent="1" source="303ed1de8c2c98b4-7" target="303ed1de8c2c98b4-16" edge="1">
          <mxGeometry relative="1" as="geometry">
            <Array as="points">
              <mxPoint x="255" y="525" />
            </Array>
          </mxGeometry>
        </mxCell>
        <mxCell id="303ed1de8c2c98b4-102" style="edgeStyle=orthogonalEdgeStyle;html=1;startSize=6;endFill=0;endSize=6;strokeWidth=1;fontSize=16;rounded=0;endArrow=none;entryX=0;entryY=0.5;strokeColor=#FFFFFF;fontColor=#FFFFFF;labelBackgroundColor=#182E3E;" parent="1" source="303ed1de8c2c98b4-7" target="303ed1de8c2c98b4-70" edge="1">
          <mxGeometry relative="1" as="geometry">
            <Array as="points">
              <mxPoint x="255" y="635" />
            </Array>
          </mxGeometry>
        </mxCell>
        <mxCell id="303ed1de8c2c98b4-103" style="edgeStyle=orthogonalEdgeStyle;html=1;startSize=6;endFill=0;endSize=6;strokeWidth=1;fontSize=16;rounded=0;endArrow=none;entryX=1;entryY=0.5;strokeColor=#FFFFFF;fontColor=#FFFFFF;labelBackgroundColor=#182E3E;" parent="1" source="303ed1de8c2c98b4-8" target="303ed1de8c2c98b4-17" edge="1">
          <mxGeometry relative="1" as="geometry">
            <Array as="points">
              <mxPoint x="1195" y="525" />
            </Array>
          </mxGeometry>
        </mxCell>
        <mxCell id="303ed1de8c2c98b4-104" style="edgeStyle=orthogonalEdgeStyle;html=1;startSize=6;endFill=0;endSize=6;strokeWidth=1;fontSize=16;rounded=0;endArrow=none;entryX=0;entryY=0.5;strokeColor=#FFFFFF;fontColor=#FFFFFF;labelBackgroundColor=#182E3E;" parent="1" source="303ed1de8c2c98b4-8" target="303ed1de8c2c98b4-18" edge="1">
          <mxGeometry relative="1" as="geometry">
            <Array as="points">
              <mxPoint x="1195" y="525" />
            </Array>
          </mxGeometry>
        </mxCell>
        <mxCell id="303ed1de8c2c98b4-105" style="edgeStyle=orthogonalEdgeStyle;html=1;startSize=6;endFill=0;endSize=6;strokeWidth=1;fontSize=16;rounded=0;endArrow=none;entryX=1;entryY=0.5;strokeColor=#FFFFFF;fontColor=#FFFFFF;labelBackgroundColor=#182E3E;" parent="1" source="303ed1de8c2c98b4-8" target="303ed1de8c2c98b4-27" edge="1">
          <mxGeometry relative="1" as="geometry">
            <Array as="points">
              <mxPoint x="1195" y="635" />
            </Array>
          </mxGeometry>
        </mxCell>
        <mxCell id="303ed1de8c2c98b4-106" style="edgeStyle=orthogonalEdgeStyle;html=1;startSize=6;endFill=0;endSize=6;strokeWidth=1;fontSize=16;rounded=0;endArrow=none;strokeColor=#FFFFFF;fontColor=#FFFFFF;labelBackgroundColor=#182E3E;" parent="1" source="303ed1de8c2c98b4-8" edge="1">
          <mxGeometry relative="1" as="geometry">
            <Array as="points">
              <mxPoint x="1195" y="760" />
              <mxPoint x="1200" y="760" />
            </Array>
            <mxPoint x="1200" y="1060" as="targetPoint" />
          </mxGeometry>
        </mxCell>
        <mxCell id="303ed1de8c2c98b4-109" style="edgeStyle=orthogonalEdgeStyle;html=1;startSize=6;endFill=0;endSize=6;strokeWidth=1;fontSize=16;rounded=0;endArrow=none;entryX=1;entryY=0.5;strokeColor=#FFFFFF;fontColor=#FFFFFF;labelBackgroundColor=#182E3E;" parent="1" source="303ed1de8c2c98b4-9" target="303ed1de8c2c98b4-19" edge="1">
          <mxGeometry relative="1" as="geometry">
            <Array as="points">
              <mxPoint x="1495" y="525" />
            </Array>
          </mxGeometry>
        </mxCell>
        <mxCell id="303ed1de8c2c98b4-110" style="edgeStyle=orthogonalEdgeStyle;html=1;startSize=6;endFill=0;endSize=6;strokeWidth=1;fontSize=16;rounded=0;endArrow=none;entryX=1;entryY=0.5;strokeColor=#FFFFFF;fontColor=#FFFFFF;labelBackgroundColor=#182E3E;" parent="1" source="303ed1de8c2c98b4-9" target="303ed1de8c2c98b4-29" edge="1">
          <mxGeometry relative="1" as="geometry">
            <Array as="points">
              <mxPoint x="1495" y="635" />
            </Array>
          </mxGeometry>
        </mxCell>
        <mxCell id="303ed1de8c2c98b4-111" style="edgeStyle=orthogonalEdgeStyle;html=1;startSize=6;endFill=0;endSize=6;strokeWidth=1;fontSize=16;rounded=0;endArrow=none;entryX=1;entryY=0.5;strokeColor=#FFFFFF;fontColor=#FFFFFF;labelBackgroundColor=#182E3E;" parent="1" source="303ed1de8c2c98b4-9" target="303ed1de8c2c98b4-39" edge="1">
          <mxGeometry relative="1" as="geometry">
            <mxPoint x="1680" y="740" as="targetPoint" />
            <Array as="points">
              <mxPoint x="1495" y="580" />
              <mxPoint x="1495" y="745" />
            </Array>
          </mxGeometry>
        </mxCell>
        <mxCell id="303ed1de8c2c98b4-112" style="edgeStyle=orthogonalEdgeStyle;html=1;startSize=6;endFill=0;endSize=6;strokeWidth=1;fontSize=16;rounded=0;endArrow=none;entryX=1;entryY=0.5;strokeColor=#FFFFFF;fontColor=#FFFFFF;labelBackgroundColor=#182E3E;" parent="1" source="303ed1de8c2c98b4-9" target="303ed1de8c2c98b4-49" edge="1">
          <mxGeometry relative="1" as="geometry">
            <Array as="points">
              <mxPoint x="1495" y="855" />
            </Array>
          </mxGeometry>
        </mxCell>
        <mxCell id="303ed1de8c2c98b4-114" style="edgeStyle=orthogonalEdgeStyle;html=1;startSize=6;endFill=0;endSize=6;strokeWidth=1;fontSize=16;rounded=0;endArrow=none;entryX=0;entryY=0.5;strokeColor=#FFFFFF;fontColor=#FFFFFF;labelBackgroundColor=#182E3E;" parent="1" source="303ed1de8c2c98b4-9" target="303ed1de8c2c98b4-20" edge="1">
          <mxGeometry relative="1" as="geometry">
            <Array as="points">
              <mxPoint x="1495" y="525" />
            </Array>
          </mxGeometry>
        </mxCell>
        <mxCell id="303ed1de8c2c98b4-115" style="edgeStyle=orthogonalEdgeStyle;html=1;startSize=6;endFill=0;endSize=6;strokeWidth=1;fontSize=16;rounded=0;endArrow=none;entryX=0;entryY=0.5;strokeColor=#FFFFFF;fontColor=#FFFFFF;labelBackgroundColor=#182E3E;" parent="1" source="303ed1de8c2c98b4-9" target="303ed1de8c2c98b4-30" edge="1">
          <mxGeometry relative="1" as="geometry">
            <Array as="points">
              <mxPoint x="1495" y="635" />
            </Array>
          </mxGeometry>
        </mxCell>
        <mxCell id="303ed1de8c2c98b4-116" style="edgeStyle=orthogonalEdgeStyle;html=1;startSize=6;endFill=0;endSize=6;strokeWidth=1;fontSize=16;rounded=0;endArrow=none;entryX=0;entryY=0.5;strokeColor=#FFFFFF;fontColor=#FFFFFF;labelBackgroundColor=#182E3E;" parent="1" source="303ed1de8c2c98b4-9" target="303ed1de8c2c98b4-40" edge="1">
          <mxGeometry relative="1" as="geometry">
            <Array as="points">
              <mxPoint x="1495" y="745" />
            </Array>
          </mxGeometry>
        </mxCell>
        <mxCell id="303ed1de8c2c98b4-117" style="edgeStyle=orthogonalEdgeStyle;html=1;startSize=6;endFill=0;endSize=6;strokeWidth=1;fontSize=16;rounded=0;endArrow=none;entryX=0;entryY=0.5;strokeColor=#FFFFFF;fontColor=#FFFFFF;labelBackgroundColor=#182E3E;" parent="1" source="303ed1de8c2c98b4-9" target="303ed1de8c2c98b4-50" edge="1">
          <mxGeometry relative="1" as="geometry">
            <Array as="points">
              <mxPoint x="1495" y="855" />
            </Array>
          </mxGeometry>
        </mxCell>
        <mxCell id="l-tAOc4Pm9dTRs9634bF-2" style="edgeStyle=orthogonalEdgeStyle;curved=0;rounded=1;sketch=0;orthogonalLoop=1;jettySize=auto;html=1;exitX=0.25;exitY=0;exitDx=0;exitDy=0;entryX=0.5;entryY=0;entryDx=0;entryDy=0;strokeColor=#FFFFFF;fontColor=#FFFFFF;" edge="1" parent="1" source="303ed1de8c2c98b4-76" target="303ed1de8c2c98b4-76">
          <mxGeometry relative="1" as="geometry" />
        </mxCell>
        <mxCell id="l-tAOc4Pm9dTRs9634bF-4" value="&lt;font color=&quot;#009999&quot; style=&quot;font-size: 13px&quot;&gt;Proporción de tiempo que se le dedica al nivel que mas necesita&lt;/font&gt;" style="rounded=1;whiteSpace=wrap;html=1;sketch=0;strokeColor=#FFFFFF;fillColor=#EEEEEE;fontColor=#1A1A1A;gradientColor=#FFFF99;" vertex="1" parent="1">
          <mxGeometry x="60" y="760" width="160" height="70" as="geometry" />
        </mxCell>
        <mxCell id="l-tAOc4Pm9dTRs9634bF-8" value="&lt;font color=&quot;#009999&quot; style=&quot;font-size: 14px&quot;&gt;Esta puede cambiar de uno a otro&lt;/font&gt;" style="rounded=1;whiteSpace=wrap;html=1;sketch=0;strokeColor=#FFFFFF;fillColor=#EEEEEE;fontColor=#1A1A1A;gradientColor=#FFFF99;" vertex="1" parent="1">
          <mxGeometry x="287.5" y="800" width="120" height="60" as="geometry" />
        </mxCell>
        <mxCell id="l-tAOc4Pm9dTRs9634bF-13" value="&#xa;&#xa;&lt;img src=&quot;https://ensep.edu.mx/wp-content/uploads/2016/09/ensep150.png&quot; alt=&quot;ensep.edu&quot;&gt;&#xa;&#xa;" style="text;whiteSpace=wrap;html=1;fontColor=#1A1A1A;" vertex="1" parent="1">
          <mxGeometry x="-127.5" width="137.5" height="330" as="geometry" />
        </mxCell>
        <mxCell id="l-tAOc4Pm9dTRs9634bF-14" value="&lt;font style=&quot;font-size: 17px ; background-color: rgb(255 , 255 , 255)&quot;&gt;NOMBRE DE LA ALUMNA: JULISA MANILLA&amp;nbsp; CANALES&lt;br&gt;ESCUELA NORMAL SUPERIOR DEL ESTADO DE PUEBLA.&lt;br&gt;NOMBRE DE LA MAESTRA:ENCARNACION MUNGUIA DIAZ&lt;br&gt;GRADO:&amp;nbsp; 1° GRUPO:&quot;B&quot;&lt;br&gt;CICLO ESCOLAR: 2020-2021&lt;br&gt;REFERENCIA BIBLIOGRAFICA:&lt;br&gt;(La-Educación-Multigrado_BIS Schmelkes). Capitulo 7 (pág.. 181- 192)&lt;br&gt;&lt;br&gt;&lt;/font&gt;" style="text;html=1;align=center;verticalAlign=middle;resizable=0;points=[];autosize=1;fontColor=#1A1A1A;" vertex="1" parent="1">
          <mxGeometry x="10" y="35" width="550" height="130" as="geometry" />
        </mxCell>
      </root>
    </mxGraphModel>
  </diagram>
</mxfile>
